# xmcd CD database file
#
# Track frame offsets:
#	150
#	12245
#	25775
#	42265
#	54022
#	71897
#	86552
#	101620
#	115487
#	128595
#	140972
#	155575
#	166917
#	181700
#	193737
#
# Disc length: 2773 seconds
#
# Revision: 0
# Processed by: cddbd v1.4PL0 Copyright (c) Steve Scherf et al.
# Submitted via: CDex 1.50
#
DISCID=c70ad30f
DTITLE=Cato Sanden - Crossroads Of My Life
DYEAR=1998
DGENRE=Country
TTITLE0=The Real Thing
TTITLE1=We Had A Dream
TTITLE2=Crossroads Of My Life
TTITLE3=I Speak My Own Mind
TTITLE4=Road Of Fear
TTITLE5=No Going Back
TTITLE6=Just A Little Something
TTITLE7=Silent Romance
TTITLE8=The Secret I Keep
TTITLE9=What's In A Name
TTITLE10=Once Upon A Time
TTITLE11=Once Upon A Time
TTITLE12=Riding The Wind
TTITLE13=Gravy Train
TTITLE14=Miss You
EXTD=YEAR: 1998
EXTT0=
EXTT1=
EXTT2=
EXTT3=
EXTT4=
EXTT5=
EXTT6=
EXTT7=
EXTT8=
EXTT9=
EXTT10=
EXTT11=
EXTT12=
EXTT13=
EXTT14=
PLAYORDER=
